# xmcd
#
# Track frame offsets: 
#        182
#        11852
#        22730
#        38782
#        49962
#        71845
#        83020
#        97612
#        108915
#        120182
#        130587
#        141200
#
# Disc length: 2038 seconds
#
# Revision: 0
# Processed by: cddbd v1.5.1PL0 Copyright (c) Steve Scherf et al.
# Submitted via: ExactAudioCopy v0.95b2
#
DISCID=8c07f40c
DTITLE=Various Artist - New Orleans Blues Blasters
DYEAR=1993
DGENRE=Blues
TTITLE0=Shake Your Moneymaker
TTITLE1=These Lonely Loney Nights
TTITLE2=Walkin' With Frankie
TTITLE3=Is You Is Or Is You Ain't My Baby
TTITLE4=There is Something On Your Mind
TTITLE5=Roberta
TTITLE6=Rockin' Pneumonia And The Boogie Woogie Flu
TTITLE7=Get Out Of My Life Woman
TTITLE8=Wish Someone Would Care
TTITLE9=Over You
TTITLE10=Ooh Poo Pah Doo
TTITLE11=Mother-in-law
EXTD=
EXTT0=
EXTT1=
EXTT2=
EXTT3=
EXTT4=
EXTT5=
EXTT6=
EXTT7=
EXTT8=
EXTT9=
EXTT10=
EXTT11=
PLAYORDER=
